<svg width="352.6" height="198.13" viewBox="0 0 352.6 198.13" fill="none" xmlns="http://www.w3.org/2000/svg">
    <defs>
        <linearGradient id="SvgjsLinearGradient6361">
            <stop stop-color="#147d6c" offset="0"></stop>
            <stop stop-color="#1effff" offset="1"></stop>
        </linearGradient>
    </defs>
    <g transform="matrix(0.48959256151256814,0,0,0.48959256151256814,101.51215959858175,3.5611160065707037)" fill="url(#SvgjsLinearGradient6361)">
        <path d="M273.5,150c0.1-0.1-91.1-91.8-91.1-91.8c-2.2-2.2-1.5-5.8,1.2-7.1c18.1-8.9,40.4-6.3,55.7,8.3   c10.1,9.7,15.2,22.8,15.1,35.7c0,2.4,1,4.7,2.7,6.4l23.8,23.8c2.3,2.3,6.3,1.4,7.3-1.6c10.7-30.8,3.8-66.4-20.8-91   c-32-32-82.9-34-117.3-6.1c-0.1-0.1-91.8,91.1-91.8,91.1c-2.2,2.2-5.8,1.5-7.1-1.2c-8.9-18.1-6.3-40.4,8.3-55.7   c9.7-10.1,22.8-15.2,35.7-15.1c2.4,0,4.7-1,6.4-2.7l23.8-23.8c2.3-2.3,1.4-6.3-1.6-7.3C93,1.2,57.4,8.1,32.8,32.7   c-32,32-34,82.9-6.1,117.3c-0.1,0.1,91.1,91.8,91.1,91.8c2.2,2.2,1.5,5.8-1.2,7.1c-18.1,8.9-40.4,6.3-55.7-8.3   c-10.1-9.7-15.2-22.8-15.1-35.7c0-2.4-1-4.7-2.7-6.4l-23.8-23.8c-2.3-2.3-6.3-1.4-7.3,1.6c-10.7,30.8-3.8,66.4,20.8,91   c32,32,82.9,34,117.3,6.1c0.1,0.1,91.8-91.1,91.8-91.1c2.2-2.2,5.8-1.5,7.1,1.2c8.9,18.1,6.3,40.4-8.3,55.7   c-9.7,10.1-22.8,15.2-35.7,15.1c-2.4,0-4.7,1-6.4,2.7l-23.8,23.8c-2.3,2.3-1.4,6.3,1.6,7.3c30.8,10.7,66.4,3.8,91-20.8   C299.4,235.3,301.4,184.4,273.5,150z M232.2,167.4c-13.4-4.5-29-1.4-39.7,9.3c0,0-40.6,40.6-56.4,56.4c-1.2,1.2-3.3,0-2.8-1.7   c4-13.3,0.8-28.2-9.6-38.7c0,0-40.9-40.9-57.5-57.6c-1.2-1.2,0.1-3.3,1.7-2.8c13.4,4.5,29,1.4,39.7-9.3c0,0,40.4-40.4,57.9-57.8   c1.2-1.2,3.4,0.1,2.8,1.7c-5,13.7-2,29.6,9.1,40.7c0,0,40.2,40.2,56.7,56.8C235.2,165.9,233.9,168,232.2,167.4z"/>
    </g>
    <g transform="matrix(1.2303884314650213,0,0,1.2303884314650213,0,147)" fill="#014d6b">
        <path d="M16.28 40.44 c-2 0 -3.96 -0.4 -5.8 -1.16 c-1.76 -0.76 -3.36 -1.84 -4.72 -3.2 c-1.4 -1.36 -2.48 -2.96 -3.2 -4.76 c-0.8 -1.84 -1.2 -3.76 -1.2 -5.8 c0 -8.2 6.72 -14.88 14.92 -14.88 c2.32 0 4.64 0.56 6.68 1.6 c2.04 1 3.88 2.56 5.24 4.4 l0.64 0.8 l-4.28 3.16 l-0.6 -0.8 c-1.8 -2.44 -4.6 -3.84 -7.68 -3.84 c-5.28 0 -9.6 4.28 -9.6 9.56 c0 5.32 4.32 9.64 9.6 9.64 c3.04 0 5.84 -1.4 7.68 -3.84 l0.6 -0.76 l4.24 3.12 l-0.64 0.8 c-1.4 1.88 -3.16 3.36 -5.24 4.4 c-2.04 1.04 -4.32 1.56 -6.64 1.56 z M47.367 40.4 c-8.2 0 -14.88 -6.64 -14.88 -14.84 c0 -8.24 6.68 -14.92 14.88 -14.92 c8.24 0 14.92 6.68 14.92 14.92 c0 8.2 -6.68 14.84 -14.92 14.84 z M47.367 15.96 c-5.24 0 -9.52 4.28 -9.52 9.6 c0 5.28 4.28 9.56 9.52 9.56 s9.52 -4.28 9.52 -9.56 c0 -5.32 -4.28 -9.6 -9.52 -9.6 z M90.81400000000001 40 l-5.16 0 l-12.64 -18.68 l0 18.68 l-5.36 0 l0 -28.48 l5.2 0 l12.6 18.64 l0 -18.64 l5.36 0 l0 28.48 z M111.861 40 l-4.84 0 l-11 -28.48 l5.76 0 l7.64 19.88 l7.68 -19.88 l5.72 0 z M145.308 40 l-18.4 0 l0 -28.48 l18.76 0 l0 5.2 l-13.4 0 l0 4.2 l11.68 0 l0 5.32 l-11.68 0 l0 8.48 l13.04 0 l0 5.28 z M175.115 40 l-6.32 0 l-10.12 -13.92 l-2.28 0 l0 13.92 l-5.2 0 l0 -28.48 l10.2 0 c1.92 0 3.72 0.76 5.12 2.16 s2.16 3.2 2.16 5.12 c0 2.84 -1.68 5.4 -4.16 6.6 z M156.395 20.88 l5 0 c1.12 0 2.08 -0.92 2.08 -2.08 s-0.96 -2.08 -2.08 -2.08 l-5 0 l0 4.16 z M188.36200000000002 40.24 c-0.92 0 -1.88 -0.12 -2.88 -0.32 c-2.96 -0.6 -5.84 -2.04 -8.36 -4.24 l-0.76 -0.68 l3.52 -4 l0.76 0.68 c1.84 1.6 3.88 2.68 5.88 3.08 l0.04 0 c0.6 0.12 1.2 0.2 1.8 0.2 c1 0 1.92 -0.2 2.68 -0.56 c0.96 -0.4 2.08 -1.28 2.08 -2.92 c0 -0.88 -0.44 -1.56 -1.36 -2.12 c-1.12 -0.68 -2.64 -1.04 -3.72 -1.24 c-0.48 -0.08 -4.56 -0.92 -6.44 -1.96 c-1.24 -0.76 -2.2 -1.72 -2.88 -2.84 c-0.68 -1.16 -1 -2.44 -1 -3.84 c0 -1.52 0.48 -3.04 1.4 -4.44 c0.88 -1.16 2.08 -2.12 3.52 -2.8 s3.04 -1.04 4.76 -1.04 c0.68 0 1.4 0.08 2.12 0.16 c2.64 0.48 5.24 1.68 7.52 3.6 l0.76 0.64 l-3.4 4.12 l-0.76 -0.64 c-2.6 -2.12 -4.84 -2.6 -6.28 -2.6 c-0.92 0 -1.76 0.2 -2.48 0.52 c-1.12 0.52 -1.84 1.48 -1.84 2.44 c0 0.88 0.32 1.44 1.08 1.96 s1.92 0.92 3.76 1.32 c0.24 0.04 0.56 0.12 0.88 0.2 c1.68 0.32 3.92 0.8 5.48 1.72 c1.36 0.72 2.4 1.72 3.12 2.88 s1.08 2.52 1.08 3.96 c0 1.8 -0.48 3.4 -1.44 4.76 c-0.84 1.16 -2.08 2.16 -3.72 2.96 c-1.4 0.72 -2.96 1.04 -4.92 1.04 z M213.089 40 l-9.56 0 l0 -28.48 l9.56 0 c8.04 0 14.6 6.4 14.6 14.24 s-6.56 14.24 -14.6 14.24 z M208.849 34.76 l4.24 0 c5.12 0 9.28 -4.04 9.28 -9 s-4.16 -9 -9.28 -9 l-4.24 0 l0 18 z M257.456 40 l-5.76 0 l-2.92 -7.68 l-9.44 0 l-2.96 7.68 l-5.72 0 l10.96 -28.48 l4.84 0 z M241.416 27.04 l5.28 0 l-2.64 -6.92 z M285.823 40 l-5.16 0 l-12.64 -18.68 l0 18.68 l-5.36 0 l0 -28.48 l5.2 0 l12.6 18.64 l0 -18.64 l5.36 0 l0 28.48 z"/>
    </g>
</svg>